<svg preserveAspectRatio="none" overflow="visible" style="display: block;" width="24" height="24" viewBox="0 0 24 24" fill="none" xmlns="http://www.w3.org/2000/svg">
<g id="Frame">
<path id="Vector" d="M13.733 1.223L14.312 2.85C14.3983 3.09246 14.5345 3.31412 14.7118 3.50066C14.8891 3.6872 15.1036 3.83447 15.3414 3.93295C15.5791 4.03144 15.8349 4.07895 16.0922 4.07241C16.3495 4.06587 16.6025 4.00543 16.835 3.895L18.395 3.154C19.958 2.411 21.589 4.042 20.846 5.605L20.105 7.165C19.9942 7.39742 19.9336 7.65051 19.9269 7.90788C19.9202 8.16525 19.9676 8.42115 20.0661 8.65901C20.1647 8.89687 20.312 9.11138 20.4988 9.28864C20.6855 9.4659 20.9073 9.60196 21.15 9.688L22.777 10.266C24.407 10.846 24.407 13.152 22.777 13.733L21.15 14.312C20.9075 14.3983 20.6859 14.5345 20.4993 14.7118C20.3128 14.8891 20.1655 15.1036 20.067 15.3414C19.9686 15.5791 19.9211 15.8349 19.9276 16.0922C19.9341 16.3495 19.9946 16.6025 20.105 16.835L20.846 18.395C21.589 19.958 19.958 21.589 18.395 20.846L16.835 20.105C16.6026 19.9944 16.3496 19.9338 16.0923 19.9271C15.8351 19.9204 15.5793 19.9678 15.3414 20.0662C15.1036 20.1646 14.8891 20.3118 14.7118 20.4984C14.5345 20.6849 14.3983 20.9065 14.312 21.149L13.733 22.777C13.153 24.407 10.847 24.407 10.267 22.777L9.688 21.149C9.6016 20.9066 9.46532 20.6851 9.28796 20.4986C9.11061 20.3122 8.89613 20.165 8.65836 20.0667C8.4206 19.9683 8.16485 19.9209 7.90762 19.9275C7.65039 19.9341 7.3974 19.9945 7.165 20.105L5.605 20.845C4.042 21.589 2.411 19.958 3.154 18.395L3.895 16.835C4.00577 16.6024 4.06648 16.3492 4.07319 16.0917C4.0799 15.8342 4.03247 15.5781 3.93397 15.3401C3.83546 15.1021 3.68807 14.8874 3.50135 14.71C3.31463 14.5325 3.09272 14.3963 2.85 14.31L1.223 13.732C-0.407 13.152 -0.407 10.845 1.223 10.265L2.85 9.687C3.09273 9.60101 3.3147 9.46503 3.50156 9.28786C3.68843 9.11068 3.83603 8.89625 3.93481 8.65845C4.03359 8.42064 4.08135 8.16475 4.07501 7.90732C4.06867 7.64989 4.00837 7.39666 3.898 7.164L3.156 5.604C2.413 4.04 4.044 2.409 5.608 3.152L7.168 3.894C7.40035 4.00429 7.65325 4.06463 7.91036 4.07115C8.16748 4.07767 8.42311 4.03021 8.66075 3.93183C8.89839 3.83346 9.11277 3.68636 9.29005 3.50002C9.46733 3.31368 9.60358 3.09224 9.69 2.85L10.268 1.223C10.846 -0.407 13.152 -0.407 13.732 1.223H13.733Z" fill="#FF884D"/>
</g>
</svg>
