<svg preserveAspectRatio="none" overflow="visible" style="display: block;" width="19.5714" height="19.5714" viewBox="0 0 19.5714 19.5714" fill="none" xmlns="http://www.w3.org/2000/svg">
<g id="Group">
<path id="Vector" d="M9.78571 19.0714C14.9141 19.0714 19.0714 14.9141 19.0714 9.78572C19.0714 4.65736 14.9141 0.500006 9.78571 0.500006C4.65736 0.500006 0.5 4.65736 0.5 9.78572C0.5 14.9141 4.65736 19.0714 9.78571 19.0714Z" stroke="#203D33" stroke-linecap="round" stroke-linejoin="round"/>
<path id="Vector_2" d="M9.78571 0.500006C9.78571 0.500006 3.97143 5.62858 9.78571 9.78572C14.7857 13.3571 9.78571 19.0714 9.78571 19.0714" stroke="#203D33" stroke-linecap="round" stroke-linejoin="round"/>
<path id="Vector_3" d="M12.6429 7.64286C13.4318 7.64286 14.0714 7.00327 14.0714 6.21429C14.0714 5.42531 13.4318 4.78572 12.6429 4.78572C11.8539 4.78572 11.2143 5.42531 11.2143 6.21429C11.2143 7.00327 11.8539 7.64286 12.6429 7.64286Z" stroke="#203D33" stroke-linecap="round" stroke-linejoin="round"/>
<path id="Vector_4" d="M6.92857 14.7857C7.71755 14.7857 8.35714 14.1461 8.35714 13.3571C8.35714 12.5682 7.71755 11.9286 6.92857 11.9286C6.13959 11.9286 5.5 12.5682 5.5 13.3571C5.5 14.1461 6.13959 14.7857 6.92857 14.7857Z" stroke="#203D33" stroke-linecap="round" stroke-linejoin="round"/>
</g>
</svg>
