<svg preserveAspectRatio="none" overflow="visible" style="display: block;" width="24" height="24" viewBox="0 0 24 24" fill="none" xmlns="http://www.w3.org/2000/svg">
<g id="travel-places-government-building-1--Streamline-Plump">
<path id="Vector" d="M6.0594 22.5C6.0594 22.5 5.8404 10.5197 6.24335 6.02205C6.2743 5.6764 6.4024 5.35055 6.62225 5.08205C8.46365 2.83376 11.0658 1.5 11.9359 1.5C12.8061 1.5 15.5227 2.834 17.377 5.08265C17.5978 5.3504 17.7257 5.6764 17.7567 6.02205C18.1596 10.5197 17.9406 22.5 17.9406 22.5" stroke="#203D33" stroke-linecap="round" stroke-linejoin="round"/>
<path id="Vector_2" d="M6.09735 8.58985C5.42115 8.61255 4.84964 8.6371 4.38017 8.66045C3.41921 8.7082 2.66598 9.4572 2.61824 10.4182C2.56003 11.5896 2.5 13.3836 2.5 15.7998V22.5002M17.9027 8.58985C18.5789 8.61255 19.1504 8.63715 19.6199 8.6605C20.5808 8.70825 21.334 9.45725 21.3818 10.4182C21.44 11.5897 21.5 13.3835 21.5 15.7998V22.5002" stroke="#203D33" stroke-linecap="round" stroke-linejoin="round"/>
<path id="Vector_3" d="M12 7.5C12.8284 7.5 13.5 6.82843 13.5 6C13.5 5.17157 12.8284 4.5 12 4.5C11.1716 4.5 10.5 5.17157 10.5 6C10.5 6.82843 11.1716 7.5 12 7.5Z" stroke="#203D33" stroke-linecap="round" stroke-linejoin="round"/>
<path id="Vector_4" d="M14 22.5C14 21.4183 14 19.5837 14 18.4995C14 17.3949 13.1046 16.5 12 16.5C10.8954 16.5 10 17.3949 10 18.4995C10 19.5837 10 21.4183 10 22.5" stroke="#203D33" stroke-linecap="round" stroke-linejoin="round"/>
<path id="Vector_5" d="M10 9.5V10.5" stroke="#203D33" stroke-linecap="round" stroke-linejoin="round"/>
<path id="Vector_6" d="M10 13V14" stroke="#203D33" stroke-linecap="round" stroke-linejoin="round"/>
<path id="Vector_7" d="M14 9.5V10.5" stroke="#203D33" stroke-linecap="round" stroke-linejoin="round"/>
<path id="Vector_8" d="M14 13V14" stroke="#203D33" stroke-linecap="round" stroke-linejoin="round"/>
<path id="Vector_9" d="M22.5 22.5H1.5" stroke="#203D33" stroke-linecap="round" stroke-linejoin="round"/>
</g>
</svg>
